<?xml version="1.0" encoding="utf-8"?>
<!-- Generator: Adobe Illustrator 21.0.2, SVG Export Plug-In . SVG Version: 6.00 Build 0)  -->
<svg version="1.1" id="Layer_1" xmlns="http://www.w3.org/2000/svg" xmlns:xlink="http://www.w3.org/1999/xlink" x="0px" y="0px"
	 viewBox="0 0 360 101.5" style="enable-background:new 0 0 360 101.5;" xml:space="preserve">
<style type="text/css">
	.st0{fill:#FFFFFF;}
	.st1{fill:#F2C318;}
	.st2{fill:#CA992C;}
	.st3{fill:#8B6B29;}
</style>
<path class="st0" d="M150.7,72.4l-9.8-37.6c-0.4-1.4-0.9-2.5-1.6-3.3c-0.7-0.8-1.4-1.4-2.2-1.8c-0.8-0.4-1.6-0.7-2.4-0.8
	c-0.8-0.1-1.5-0.2-2.2-0.2c-0.6,0-1.4,0.1-2.2,0.2c-0.8,0.1-1.6,0.4-2.4,0.8c-0.8,0.4-1.5,1-2.2,1.8c-0.7,0.8-1.2,1.9-1.6,3.3
	l-9.8,37.6c0,0.1,0,0.1,0,0.2c0,0,0,0.1,0,0.1c0,0.3,0.1,0.6,0.3,0.7c0.2,0.2,0.5,0.3,0.8,0.3h6.4c0.3,0,0.5-0.1,0.7-0.3
	c0.2-0.2,0.3-0.4,0.4-0.7l2.8-11.4h13.8l2.8,11.4c0.1,0.3,0.2,0.5,0.4,0.7c0.2,0.2,0.4,0.3,0.7,0.3h6.4c0.3,0,0.6-0.1,0.8-0.3
	c0.2-0.2,0.3-0.4,0.3-0.7c0,0,0-0.1,0-0.1C150.7,72.6,150.7,72.5,150.7,72.4 M127.3,54.5l4.3-17.8c0.1-0.4,0.2-0.6,0.3-0.7
	c0.1-0.1,0.3-0.2,0.7-0.2c0.3,0,0.5,0.1,0.7,0.2c0.1,0.1,0.2,0.4,0.3,0.7l4.3,17.8H127.3z"/>
<path class="st0" d="M170.8,56l12-14.8c0.2-0.2,0.2-0.4,0.2-0.6c0-0.4-0.3-0.7-0.9-0.7h-6.7c-0.2,0-0.4,0.1-0.7,0.1
	c-0.3,0.1-0.5,0.3-0.7,0.6l-10.2,13.7v-25c0-0.3-0.1-0.6-0.4-0.8c-0.2-0.2-0.5-0.4-0.8-0.4h-5.5c-0.3,0-0.6,0.1-0.8,0.4
	c-0.2,0.2-0.4,0.5-0.4,0.8v43.1c0,0.3,0.1,0.6,0.4,0.9c0.2,0.3,0.5,0.4,0.8,0.4h5.5c0.3,0,0.6-0.1,0.8-0.4c0.2-0.3,0.4-0.5,0.4-0.9
	V58.9l9.4,13.7c0.2,0.3,0.5,0.5,0.8,0.8c0.3,0.3,0.6,0.4,1,0.4h7.3c0.2,0,0.4-0.1,0.6-0.2c0.2-0.1,0.2-0.3,0.2-0.5
	c0-0.1-0.1-0.3-0.2-0.5L170.8,56z"/>
<path class="st0" d="M195.4,27.8h-5.8c-0.3,0-0.6,0.1-0.9,0.4c-0.3,0.2-0.4,0.5-0.4,0.8v5.3c0,0.3,0.1,0.6,0.4,0.8
	c0.3,0.2,0.5,0.4,0.9,0.4h5.8c0.3,0,0.6-0.1,0.8-0.4c0.2-0.2,0.4-0.5,0.4-0.8V29c0-0.3-0.1-0.6-0.4-0.8
	C196,27.9,195.7,27.8,195.4,27.8"/>
<path class="st0" d="M195.2,39.9h-5.5c-0.3,0-0.6,0.1-0.8,0.4c-0.2,0.2-0.4,0.5-0.4,0.8v31.3c0,0.3,0.1,0.6,0.4,0.9
	c0.2,0.3,0.5,0.4,0.8,0.4h5.5c0.3,0,0.6-0.1,0.8-0.4c0.2-0.3,0.4-0.5,0.4-0.9V41.1c0-0.3-0.1-0.6-0.4-0.8
	C195.8,40.1,195.5,39.9,195.2,39.9"/>
<path class="st0" d="M221.7,68h-3.2c-0.6,0-1,0-1.3-0.1c-0.3-0.1-0.5-0.2-0.7-0.4c-0.2-0.2-0.3-0.6-0.3-1c0-0.4-0.1-1-0.1-1.8V45.9
	h5.4c0.3,0,0.6-0.1,0.8-0.4c0.2-0.2,0.4-0.5,0.4-0.8v-3.5c0-0.3-0.1-0.6-0.4-0.8c-0.2-0.2-0.5-0.4-0.8-0.4h-5.4v-6.2
	c0-0.6-0.3-0.9-1-0.9H215l-5.6,1c-0.3,0.1-0.6,0.2-0.8,0.4c-0.2,0.2-0.4,0.5-0.4,0.8v4.9h-5.4c-0.3,0-0.6,0.1-0.8,0.4
	c-0.2,0.2-0.4,0.5-0.4,0.8v3.5c0,0.3,0.1,0.6,0.4,0.8c0.2,0.2,0.5,0.4,0.8,0.4h5.4v18.8c0,2,0.2,3.6,0.5,4.9
	c0.4,1.3,0.9,2.2,1.7,2.9c0.8,0.7,1.7,1.1,3,1.4c1.2,0.2,2.7,0.4,4.3,0.4c0.7,0,1.3,0,2-0.1c0.7-0.1,1.3-0.2,2.1-0.3
	c0.8-0.1,1.1-0.5,1.1-1.1v-3.8C223,68.3,222.6,68,221.7,68"/>
<path class="st0" d="M250.2,42.3c-2.3-1.9-5.5-2.8-9.8-2.8c-2.1,0-4,0.1-5.7,0.3c-1.7,0.2-3.1,0.4-4.3,0.7c-0.8,0.2-1.1,0.6-1.1,1.3
	v3.8c0,0.4,0.1,0.7,0.3,0.8c0.2,0.1,0.5,0.2,0.8,0.2h0.3c1-0.1,2.4-0.2,4.2-0.3c1.8-0.1,3.7-0.1,5.6-0.1c1.8,0,3.1,0.3,4,1
	c0.9,0.6,1.3,1.9,1.3,3.9v2.6h-3.8c-2.6,0-4.8,0.2-6.7,0.7c-1.9,0.4-3.4,1.1-4.6,2c-1.2,0.9-2,2-2.6,3.2c-0.5,1.3-0.8,2.8-0.8,4.5
	v0.2c0,2,0.3,3.7,0.9,5c0.6,1.3,1.4,2.3,2.4,3.1c1,0.8,2.1,1.3,3.3,1.6c1.2,0.3,2.5,0.4,3.7,0.4c1.4,0,2.9-0.2,4.3-0.7
	c1.4-0.5,2.8-1.1,4.2-1.9v1c0,0.3,0.1,0.6,0.4,0.8c0.2,0.2,0.5,0.4,0.8,0.4h5.1c0.3,0,0.6-0.1,0.8-0.4c0.2-0.2,0.4-0.5,0.4-0.8V51
	C253.6,47.1,252.5,44.2,250.2,42.3 M245.7,66.2c-0.9,0.5-1.8,0.9-2.9,1.2c-1.1,0.3-2.1,0.5-3.2,0.5c-1.5,0-2.6-0.2-3.3-0.7
	c-0.7-0.5-1-1.5-1-3V64c0-0.8,0.1-1.6,0.3-2.2c0.2-0.6,0.5-1.2,1-1.6c0.5-0.4,1.2-0.7,2-1c0.9-0.2,2-0.3,3.3-0.3h3.8V66.2z"/>
<path class="st0" d="M286.9,51.1c1.8-0.8,3.2-2,4.1-3.6c0.9-1.6,1.4-3.4,1.4-5.4v-1.2c0-2.3-0.4-4.2-1.3-5.7
	c-0.9-1.5-2.2-2.8-3.8-3.7c-1.6-1-3.6-1.6-5.8-2.1c-2.3-0.4-4.7-0.6-7.5-0.6c-2.4,0-4.4,0.1-6.2,0.2c-1.8,0.1-3,0.3-3.8,0.4
	c-1,0.2-1.6,0.5-2.1,0.9c-0.4,0.5-0.6,1.2-0.6,2.3v37.8c0,1.1,0.2,1.9,0.7,2.3c0.5,0.4,1.2,0.7,2.2,0.9c0.9,0.2,2.3,0.4,4,0.5
	c1.8,0.1,3.9,0.2,6.3,0.2c2.8,0,5.3-0.2,7.6-0.7c2.2-0.5,4.1-1.2,5.7-2.2c1.6-1,2.8-2.3,3.7-4s1.3-3.7,1.3-6.1v-1
	c0-2.3-0.5-4.2-1.5-5.7C290.1,53.1,288.7,51.9,286.9,51.1 M269.6,35.7c0.6,0,1.3-0.1,2.1-0.1c0.8,0,1.5,0,2.2,0
	c3.8,0,6.5,0.4,8.1,1.3c1.5,0.9,2.3,2.4,2.3,4.4v0.8c0,0.8-0.1,1.5-0.3,2.2c-0.2,0.7-0.6,1.3-1.1,1.8c-0.5,0.5-1.3,0.9-2.2,1.2
	c-0.9,0.3-2.1,0.4-3.5,0.4h-7.6V35.7z M284.5,61.1c0,1-0.2,1.9-0.5,2.7c-0.3,0.8-0.9,1.4-1.7,1.9c-0.8,0.5-1.8,0.9-3.1,1.1
	c-1.3,0.2-2.9,0.4-4.8,0.4c-0.6,0-1.4,0-2.4-0.1c-1,0-1.8-0.1-2.5-0.1V54h7.6c1.4,0,2.6,0.2,3.5,0.5c0.9,0.4,1.7,0.8,2.3,1.4
	c0.6,0.6,1,1.2,1.2,2c0.2,0.8,0.4,1.6,0.4,2.4V61.1z"/>
<path class="st0" d="M323.2,43.8c-1.2-1.3-2.7-2.4-4.5-3.1c-1.8-0.8-3.8-1.1-6.2-1.1c-2.4,0-4.4,0.4-6.2,1.1
	c-1.8,0.8-3.3,1.8-4.5,3.1c-1.2,1.3-2.1,2.9-2.7,4.7c-0.6,1.8-0.9,3.8-0.9,6v4.9c0,2.2,0.3,4.1,0.9,6c0.6,1.8,1.5,3.4,2.7,4.7
	c1.2,1.3,2.7,2.4,4.5,3.1c1.8,0.8,3.8,1.1,6.2,1.1c2.4,0,4.4-0.4,6.2-1.1c1.8-0.8,3.3-1.8,4.5-3.1c1.2-1.3,2.1-2.9,2.7-4.7
	c0.6-1.8,0.9-3.8,0.9-6v-4.9c0-2.2-0.3-4.1-0.9-6C325.3,46.7,324.4,45.1,323.2,43.8 M318.9,59.3c0,2.5-0.5,4.4-1.6,5.9
	c-1.1,1.5-2.7,2.2-4.8,2.2c-2.1,0-3.7-0.7-4.8-2.2c-1.1-1.5-1.6-3.4-1.6-5.9v-4.9c0-2.5,0.5-4.4,1.6-5.9c1.1-1.5,2.7-2.2,4.8-2.2
	c2.1,0,3.7,0.7,4.8,2.2c1.1,1.5,1.6,3.4,1.6,5.9V59.3z"/>
<path class="st0" d="M359.9,72.5L349,56.2l9.9-15.1c0.1-0.2,0.2-0.3,0.2-0.5c0-0.4-0.2-0.7-0.7-0.7h-6.2c-0.3,0-0.6,0.1-0.8,0.2
	c-0.2,0.1-0.5,0.5-0.8,1l-5.6,9.3l-6.1-9.3c-0.3-0.4-0.6-0.8-0.8-0.9c-0.2-0.2-0.5-0.3-0.8-0.3h-6.8c-0.3,0-0.5,0.1-0.7,0.3
	c-0.2,0.2-0.3,0.4-0.3,0.6c0,0.1,0,0.2,0.1,0.4l10.1,15.2L329,72.5c-0.1,0.2-0.2,0.4-0.2,0.5c0,0.4,0.2,0.7,0.7,0.7h6.2
	c0.3,0,0.6-0.1,0.8-0.2c0.2-0.1,0.5-0.5,0.8-1l6.5-10.5l6.8,10.5c0.3,0.5,0.6,0.8,0.8,1c0.2,0.1,0.5,0.2,0.8,0.2h6.8
	c0.2,0,0.4-0.1,0.6-0.2c0.2-0.2,0.3-0.3,0.3-0.5C360,72.8,360,72.7,359.9,72.5"/>
<path d="M9.4,81.7l17.2,9.9V75.8l17.2,9.9L61,75.8v15.8l17.2-9.9V31.1L43.8,11.3L9.4,31.1V81.7z M61,41.1v16.9l-17.2,9.9l-17.2-9.9
	V41.1l17.2-9.9L61,41.1z"/>
<polygon class="st1" points="26.6,41.1 26.6,41.1 43.8,51 61,41.1 43.8,31.1 "/>
<polygon class="st1" points="9.4,31.1 43.8,11.3 78.1,31.1 87.5,25.7 43.8,0.4 0,25.7 "/>
<polygon class="st2" points="43.8,101.5 43.8,85.7 26.6,75.8 26.6,91.6 "/>
<polygon class="st2" points="9.4,81.7 9.4,31.1 0,25.7 0,76.3 "/>
<polygon class="st2" points="43.8,51 26.6,41.1 26.6,57.9 43.8,67.8 "/>
<polygon class="st3" points="61,75.8 43.8,85.7 43.8,101.5 61,91.6 "/>
<polygon class="st3" points="61,41.1 43.8,51 43.8,67.8 61,57.9 "/>
<polygon class="st3" points="87.5,76.3 87.5,25.7 78.1,31.1 78.1,81.7 "/>
</svg>
